<?xml version="1.0" standalone="no"?>
<!DOCTYPE svg PUBLIC "-//W3C//DTD SVG 20010904//EN"
 "http://www.w3.org/TR/2001/REC-SVG-20010904/DTD/svg10.dtd">
<svg version="1.0" xmlns="http://www.w3.org/2000/svg"
 width="629.000000pt" height="304.000000pt" viewBox="0 0 629.000000 304.000000"
 preserveAspectRatio="xMidYMid meet">

<g transform="translate(0.000000,304.000000) scale(0.100000,-0.100000)"
fill="#1760A2" stroke="none">
<path d="M1305 2254 c-246 -24 -437 -83 -558 -171 -91 -67 -186 -231 -187
-323 0 -45 25 -100 59 -128 25 -20 181 -93 326 -152 146 -59 222 -95 248 -118
23 -21 21 -67 -7 -127 -31 -67 -82 -110 -146 -124 -62 -13 -66 -13 -112 0 -33
9 -38 14 -38 40 0 16 23 74 50 129 l50 100 -320 0 -320 0 -29 -59 c-41 -80
-71 -173 -71 -218 0 -83 70 -136 235 -178 331 -84 906 -36 1158 98 77 40 158
131 208 232 71 144 71 233 2 293 -49 43 -200 116 -377 181 -228 85 -248 100
-227 172 25 82 103 138 194 139 54 0 87 -13 87 -36 0 -8 -16 -46 -35 -84 -19
-38 -35 -72 -35 -75 0 -3 143 -5 318 -5 l319 0 37 79 c45 96 56 169 32 207
-24 36 -123 79 -241 104 -83 18 -140 22 -340 25 -132 1 -258 1 -280 -1z"/>
<path d="M3165 2253 c-232 -27 -386 -67 -524 -134 -123 -60 -193 -124 -257
-234 -70 -119 -292 -557 -320 -630 -35 -92 -38 -177 -7 -221 43 -60 175 -112
343 -135 121 -16 446 -17 570 0 278 37 506 121 614 226 48 46 135 174 180 263
l26 52 -344 0 -345 0 -62 -117 c-101 -193 -126 -216 -235 -217 -76 -1 -98 14
-91 61 6 36 358 727 406 797 37 54 82 76 156 76 69 0 95 -13 95 -46 0 -13 -35
-94 -79 -179 l-79 -155 347 0 348 0 60 128 c117 244 109 315 -40 386 -136 64
-284 87 -557 84 -96 0 -188 -3 -205 -5z"/>
<path d="M4263 1872 c-101 -196 -253 -493 -338 -660 l-155 -302 347 2 347 3
139 270 c76 149 142 274 147 278 4 5 5 -118 2 -272 l-5 -281 358 0 357 0 -6
53 c-17 146 -57 659 -53 670 3 8 153 139 334 292 180 153 335 284 343 291 12
12 -37 14 -307 14 l-322 0 -278 -249 c-153 -137 -280 -248 -282 -246 -2 2 53
114 122 249 l126 246 -347 0 -347 0 -182 -358z"/>
<path d="M2948 719 c-11 -6 -18 -22 -18 -39 0 -25 6 -30 43 -42 44 -15 60 -41
32 -52 -9 -3 -30 2 -46 11 -36 21 -52 8 -20 -18 48 -39 115 -16 109 36 -2 25
-10 32 -45 43 -24 8 -43 20 -43 28 0 17 33 18 60 2 29 -18 39 1 11 23 -26 21
-56 24 -83 8z"/>
<path d="M3183 718 c-48 -23 -49 -123 -3 -148 40 -22 110 1 110 36 0 19 -26
18 -34 -1 -7 -18 -47 -20 -64 -3 -16 16 -16 70 0 86 17 17 57 15 64 -3 8 -19
34 -20 34 -1 0 19 -39 46 -65 45 -11 0 -30 -5 -42 -11z"/>
<path d="M3390 645 c0 -69 3 -85 15 -85 8 0 15 9 15 19 0 28 11 51 24 51 6 0
21 -16 34 -35 13 -21 30 -35 42 -35 19 0 17 5 -15 52 l-35 52 32 33 c26 27 28
33 14 33 -10 0 -34 -16 -53 -35 -19 -19 -37 -35 -39 -35 -2 0 -4 16 -4 35 0
24 -5 35 -15 35 -12 0 -15 -16 -15 -85z"/>
<path d="M3715 705 c-52 -51 -16 -145 55 -145 29 0 70 29 70 50 0 15 -26 12
-40 -6 -21 -24 -63 -14 -74 18 -20 57 38 106 74 63 13 -16 40 -21 40 -7 -1 23
-45 52 -80 52 -11 0 -32 -11 -45 -25z"/>
<path d="M3916 722 c-8 -13 -56 -144 -56 -153 0 -18 28 -8 33 11 4 15 14 20
40 20 26 0 36 -5 40 -20 3 -11 12 -20 21 -20 20 0 21 -5 -15 89 -28 73 -48 97
-63 73z m34 -84 c0 -11 -8 -18 -20 -18 -23 0 -23 0 -9 37 8 22 12 24 19 13 6
-8 10 -23 10 -32z"/>
<path d="M4037 724 c-4 -4 -7 -43 -7 -86 0 -61 3 -78 15 -78 10 0 15 15 17 58
l3 57 35 -57 c21 -34 42 -58 53 -58 15 0 17 11 17 85 0 68 -3 85 -15 85 -10 0
-15 -15 -17 -57 l-3 -57 -35 54 c-35 54 -50 67 -63 54z"/>
<path d="M4192 719 c3 -8 16 -47 29 -87 19 -60 27 -72 43 -70 14 2 25 21 43
72 26 80 28 96 10 96 -7 0 -22 -28 -33 -62 l-20 -63 -21 60 c-13 40 -26 61
-38 64 -12 2 -16 -2 -13 -10z"/>
<path d="M4367 663 c-14 -37 -29 -76 -33 -85 -4 -13 -1 -18 11 -18 9 0 19 9
22 20 4 15 14 20 38 20 25 0 35 -5 40 -20 7 -22 35 -28 35 -7 -1 30 -57 152
-71 155 -11 2 -23 -17 -42 -65z m58 -20 c5 -19 2 -23 -14 -23 -21 0 -26 15
-15 45 8 19 19 10 29 -22z"/>
<path d="M4519 711 c-20 -16 -22 -22 -12 -44 8 -17 24 -28 50 -34 43 -10 56
-37 23 -48 -14 -4 -28 -1 -39 9 -19 18 -41 21 -41 7 0 -20 33 -41 64 -41 45 0
68 20 64 54 -2 23 -11 31 -48 45 -25 9 -44 21 -43 26 3 15 45 18 53 5 4 -7 16
-10 26 -8 18 3 17 5 -4 26 -27 27 -62 28 -93 3z"/>
<path d="M4750 712 c-13 -10 -23 -33 -27 -59 -5 -35 -2 -45 20 -67 32 -32 79
-34 107 -6 11 11 20 25 20 30 0 15 -26 12 -40 -5 -20 -25 -59 -19 -70 11 -22
58 27 108 69 70 37 -34 57 -12 21 24 -25 25 -71 26 -100 2z"/>
<path d="M4926 709 c-21 -16 -26 -29 -26 -64 0 -54 28 -85 75 -85 71 0 105
105 49 149 -15 12 -37 21 -49 21 -12 0 -34 -9 -49 -21z m82 -21 c7 -7 12 -26
12 -43 0 -36 -15 -55 -45 -55 -30 0 -45 19 -45 55 0 36 15 55 45 55 12 0 26
-5 33 -12z"/>
<path d="M5290 645 l0 -85 55 0 c42 0 55 3 55 15 0 11 -11 15 -40 15 l-40 0 0
70 c0 56 -3 70 -15 70 -12 0 -15 -16 -15 -85z"/>
<path d="M5390 715 c0 -9 9 -15 25 -15 24 0 25 -2 25 -70 0 -55 3 -70 15 -70
11 0 15 16 17 68 3 61 5 67 26 70 12 2 22 10 22 18 0 11 -15 14 -65 14 -51 0
-65 -3 -65 -15z"/>
<path d="M5550 646 l0 -86 44 0 c63 0 96 29 96 84 0 55 -21 75 -89 83 l-51 6
0 -87z m94 38 c19 -18 21 -65 4 -82 -7 -7 -25 -12 -40 -12 -27 0 -28 1 -28 55
0 52 2 55 24 55 14 0 32 -7 40 -16z"/>
<path d="M3080 580 c0 -11 7 -20 15 -20 8 0 15 9 15 20 0 11 -7 20 -15 20 -8
0 -15 -9 -15 -20z"/>
<path d="M3327 594 c-14 -15 -6 -34 14 -34 14 0 19 5 17 17 -3 18 -20 27 -31
17z"/>
<path d="M3560 580 c0 -11 7 -20 15 -20 8 0 15 9 15 20 0 11 -7 20 -15 20 -8
0 -15 -9 -15 -20z"/>
<path d="M5087 594 c-14 -15 -6 -34 14 -34 14 0 19 5 17 17 -3 18 -20 27 -31
17z"/>
<path d="M5150 580 c0 -11 5 -20 11 -20 8 0 7 -6 -2 -17 -12 -14 -12 -16 1
-11 21 7 26 68 6 68 -9 0 -16 -9 -16 -20z"/>
<path d="M5720 580 c0 -15 5 -20 18 -18 9 2 17 10 17 18 0 8 -8 16 -17 18 -13
2 -18 -3 -18 -18z"/>
</g>
</svg>
